<svg id="svg" xmlns="http://www.w3.org/2000/svg" xmlns:xlink="http://www.w3.org/1999/xlink" width="400" height="400" viewBox="0, 0, 400,400"><g id="svgg"><path id="path0" d="M187.500 0.219 C 179.545 0.858,176.675 1.156,171.667 1.864 C 79.201 14.937,8.025 90.585,0.506 183.776 C -6.726 273.428,45.935 356.055,130.500 387.736 C 141.589 391.891,148.165 390.435,150.219 383.371 C 150.708 381.686,150.646 343.558,150.152 343.046 C 150.088 342.979,147.890 343.241,145.268 343.627 C 111.766 348.563,91.568 340.617,83.044 319.148 C 78.564 307.866,69.571 295.709,62.043 290.759 C 50.274 283.020,50.419 278.263,62.424 278.291 C 74.178 278.318,84.139 285.315,94.103 300.544 C 103.193 314.436,115.089 320.889,130.416 320.241 C 138.571 319.897,151.110 316.499,151.476 314.534 C 153.610 303.081,156.581 296.346,162.107 290.439 C 163.199 289.271,164.035 288.264,163.963 288.201 C 163.892 288.138,161.433 287.759,158.500 287.358 C 101.350 279.558,74.383 249.856,73.421 193.650 C 73.011 169.704,78.342 154.011,92.666 136.999 L 93.649 135.832 92.675 132.803 C 88.246 119.029,88.792 102.510,94.190 86.974 C 95.676 82.697,95.584 82.805,97.929 82.560 C 108.658 81.439,129.248 89.371,147.912 101.816 L 150.323 103.425 155.912 102.061 C 185.493 94.844,217.590 94.956,246.464 102.376 L 250.642 103.450 253.571 101.494 C 271.298 89.658,288.630 82.669,300.571 82.543 C 305.465 82.491,305.201 82.305,306.816 86.974 C 312.211 102.575,312.753 119.033,308.325 132.803 L 307.351 135.832 308.342 136.999 C 322.633 153.831,328.033 169.818,327.565 193.910 C 326.462 250.783,298.734 280.448,239.917 287.683 C 236.123 288.149,236.184 288.052,238.356 290.179 C 243.392 295.110,247.200 303.161,249.073 312.833 C 249.759 316.378,249.789 317.617,249.975 350.000 C 250.188 387.238,250.007 384.530,252.470 387.257 C 255.981 391.142,260.631 391.240,270.258 387.632 C 340.303 361.383,390.338 297.433,398.806 223.333 C 411.810 109.550,328.207 8.581,214.167 0.340 C 209.977 0.037,190.846 -0.050,187.500 0.219 " stroke="none" fill="#000000" fill-rule="evenodd"></path></g></svg>